<svg width="25" height="29" viewBox="0 0 25 29" fill="none" xmlns="http://www.w3.org/2000/svg">
<path d="M1.98807 3.39884L0 19.4237C0.490881 21.706 2.95756 21.4974 4.24612 21.387L5.47333 8.40509C5.93475 4.69458 9.33083 3.05937 10.9344 3.0062H16.4568C19.9619 3.0062 20.8747 6.4623 20.8993 8.02471C20.8011 8.98996 20.5802 11.2321 20.482 12.4788C20.3838 13.7254 19.7048 15.1496 19.3775 15.7059C17.5858 18.0985 16.15 18.0863 14.7633 18.3562L8.65178 18.4544C8.37771 20.3481 7.82219 24.6705 7.79274 26.8104C7.76329 28.9503 8.86041 28.2255 9.41265 27.5957L14.9105 21.6937C16.4772 21.706 19.9494 21.7232 21.3042 21.6937C22.6591 21.6643 23.2023 20.3481 23.3046 19.6937C23.8446 14.2621 24.9392 3.06755 24.9981 1.74237C25.057 0.417187 23.7137 0.0286305 23.0346 0C16.7963 0.539889 4.14058 1.64421 3.4239 1.74237C2.70721 1.84053 2.16806 2.88759 1.98807 3.39884Z" fill="black"/>
<path d="M11.0203 7.17807C9.609 7.21897 9.62127 8.02471 9.13039 14.2334C10.9385 14.2334 14.6626 14.1598 15.2419 14.1598C15.8211 14.1598 16.1541 13.3663 16.2482 12.9696C16.3709 11.7385 16.6384 9.10203 16.7268 8.40509C16.8151 7.70814 16.15 7.29668 15.8064 7.17807C14.4319 7.16989 11.6977 7.15843 11.0203 7.17807Z" fill="black"/>
</svg>